{
 "cells": [
  {
   "cell_type": "code",
   "metadata": {
    "ExecuteTime": {
     "end_time": "2024-04-04T14:16:03.461665Z",
     "start_time": "2024-04-04T14:16:03.458330Z"
    }
   },
   "source": [
    "# from greem.utility.monitoring import BaseMonitoring, RegularMonitoring, PeriodicMonitoring\n",
    "from codecarbon import OfflineEmissionsTracker\n",
    "import os\n",
    "import pandas as pd\n",
    "from time import sleep"
   ],
   "outputs": [],
   "execution_count": 43
  },
  {
   "cell_type": "code",
   "metadata": {
    "ExecuteTime": {
     "end_time": "2024-04-04T14:16:03.466003Z",
     "start_time": "2024-04-04T14:16:03.463094Z"
    }
   },
   "source": [
    "host_name: str = os.uname()[1]\n",
    "host_name"
   ],
   "outputs": [
    {
     "data": {
      "text/plain": [
       "'bauer.itec.aau.at'"
      ]
     },
     "execution_count": 44,
     "metadata": {},
     "output_type": "execute_result"
    }
   ],
   "execution_count": 44
  },
  {
   "cell_type": "code",
   "metadata": {
    "ExecuteTime": {
     "end_time": "2024-04-04T14:16:04.566943Z",
     "start_time": "2024-04-04T14:16:03.467054Z"
    }
   },
   "source": [
    "low_res_video: str = 'beauty_low_res.mp4'\n",
    "high_res_video: str = 'beauty_high_res.mp4'\n",
    "\n",
    "os.system(\n",
    "    f'ffmpeg -n -re -i Beauty_s000.265 -b:v:0 1000k -minrate 1000k -maxrate 1000k -bufsize 3000k -c:v:0 libx264 -filter:v:0 \"scale=640:360\" -preset medium -keyint_min 10 -g 10 {low_res_video}')\n",
    "os.system(f'ffmpeg -n -re -i Beauty_s000.265 -c:v:0 libx264 -crf 15 -preset medium {high_res_video}')"
   ],
   "outputs": [
    {
     "name": "stderr",
     "output_type": "stream",
     "text": [
      "ffmpeg version 6.1.1 Copyright (c) 2000-2023 the FFmpeg developers\n",
      "  built with Apple clang version 15.0.0 (clang-1500.3.9.4)\n",
      "  configuration: --prefix=/opt/homebrew/Cellar/ffmpeg/6.1.1_5 --enable-shared --enable-pthreads --enable-version3 --cc=clang --host-cflags= --host-ldflags='-Wl,-ld_classic' --enable-ffplay --enable-gnutls --enable-gpl --enable-libaom --enable-libaribb24 --enable-libbluray --enable-libdav1d --enable-libharfbuzz --enable-libjxl --enable-libmp3lame --enable-libopus --enable-librav1e --enable-librist --enable-librubberband --enable-libsnappy --enable-libsrt --enable-libssh --enable-libsvtav1 --enable-libtesseract --enable-libtheora --enable-libvidstab --enable-libvmaf --enable-libvorbis --enable-libvpx --enable-libwebp --enable-libx264 --enable-libx265 --enable-libxml2 --enable-libxvid --enable-lzma --enable-libfontconfig --enable-libfreetype --enable-frei0r --enable-libass --enable-libopencore-amrnb --enable-libopencore-amrwb --enable-libopenjpeg --enable-libopenvino --enable-libspeex --enable-libsoxr --enable-libzmq --enable-libzimg --disable-libjack --disable-indev=jack --enable-videotoolbox --enable-audiotoolbox --enable-neon\n",
      "  libavutil      58. 29.100 / 58. 29.100\n",
      "  libavcodec     60. 31.102 / 60. 31.102\n",
      "  libavformat    60. 16.100 / 60. 16.100\n",
      "  libavdevice    60.  3.100 / 60.  3.100\n",
      "  libavfilter     9. 12.100 /  9. 12.100\n",
      "  libswscale      7.  5.100 /  7.  5.100\n",
      "  libswresample   4. 12.100 /  4. 12.100\n",
      "  libpostproc    57.  3.100 / 57.  3.100\n",
      "[hevc @ 0x15bf048a0] Stream #0: not enough frames to estimate rate; consider increasing probesize\n",
      "Input #0, hevc, from 'Beauty_s000.265':\n",
      "  Duration: N/A, bitrate: N/A\n",
      "  Stream #0:0: Video: hevc (Main), yuv420p(tv), 3840x2160, 25 fps, 23.98 tbr, 1200k tbn\n",
      "File 'beauty_low_res.mp4' already exists. Exiting.\n",
      "Error opening output file beauty_low_res.mp4.\n",
      "ffmpeg version 6.1.1 Copyright (c) 2000-2023 the FFmpeg developers\n",
      "  built with Apple clang version 15.0.0 (clang-1500.3.9.4)\n",
      "  configuration: --prefix=/opt/homebrew/Cellar/ffmpeg/6.1.1_5 --enable-shared --enable-pthreads --enable-version3 --cc=clang --host-cflags= --host-ldflags='-Wl,-ld_classic' --enable-ffplay --enable-gnutls --enable-gpl --enable-libaom --enable-libaribb24 --enable-libbluray --enable-libdav1d --enable-libharfbuzz --enable-libjxl --enable-libmp3lame --enable-libopus --enable-librav1e --enable-librist --enable-librubberband --enable-libsnappy --enable-libsrt --enable-libssh --enable-libsvtav1 --enable-libtesseract --enable-libtheora --enable-libvidstab --enable-libvmaf --enable-libvorbis --enable-libvpx --enable-libwebp --enable-libx264 --enable-libx265 --enable-libxml2 --enable-libxvid --enable-lzma --enable-libfontconfig --enable-libfreetype --enable-frei0r --enable-libass --enable-libopencore-amrnb --enable-libopencore-amrwb --enable-libopenjpeg --enable-libopenvino --enable-libspeex --enable-libsoxr --enable-libzmq --enable-libzimg --disable-libjack --disable-indev=jack --enable-videotoolbox --enable-audiotoolbox --enable-neon\n",
      "  libavutil      58. 29.100 / 58. 29.100\n",
      "  libavcodec     60. 31.102 / 60. 31.102\n",
      "  libavformat    60. 16.100 / 60. 16.100\n",
      "  libavdevice    60.  3.100 / 60.  3.100\n",
      "  libavfilter     9. 12.100 /  9. 12.100\n",
      "  libswscale      7.  5.100 /  7.  5.100\n",
      "  libswresample   4. 12.100 /  4. 12.100\n",
      "  libpostproc    57.  3.100 / 57.  3.100\n",
      "[hevc @ 0x122f06070] Stream #0: not enough frames to estimate rate; consider increasing probesize\n",
      "Input #0, hevc, from 'Beauty_s000.265':\n",
      "  Duration: N/A, bitrate: N/A\n",
      "  Stream #0:0: Video: hevc (Main), yuv420p(tv), 3840x2160, 25 fps, 23.98 tbr, 1200k tbn\n",
      "File 'beauty_high_res.mp4' already exists. Exiting.\n",
      "Error opening output file beauty_high_res.mp4.\n"
     ]
    },
    {
     "data": {
      "text/plain": [
       "0"
      ]
     },
     "execution_count": 45,
     "metadata": {},
     "output_type": "execute_result"
    }
   ],
   "execution_count": 45
  },
  {
   "cell_type": "code",
   "metadata": {
    "ExecuteTime": {
     "end_time": "2024-04-04T14:17:12.086840Z",
     "start_time": "2024-04-04T14:16:04.568584Z"
    }
   },
   "source": [
    "measurement_interval = 0.25\n",
    "repetitions = 10\n",
    "\n",
    "flushed_measurements: list = []\n",
    "\n",
    "tracker = OfflineEmissionsTracker(\n",
    "    measure_power_secs=measurement_interval,\n",
    "    project_name='test test',\n",
    "    log_level='error',\n",
    "    save_to_file=False,\n",
    "    country_iso_code='AUT')\n",
    "\n",
    "for i in range(repetitions):\n",
    "    tracker._project_name = f'high_res_{measurement_interval}s_{(i + 1)}'\n",
    "    tracker.start()\n",
    "    os.system(f'ffmpeg -y -re -i {high_res_video} -c:v:0 libx264 -preset medium test.mp4')\n",
    "    flushed_measurements.append(tracker._prepare_emissions_data(delta=True))\n",
    "\n",
    "    sleep(0.5)\n",
    "    tracker._prepare_emissions_data(delta=True)\n",
    "\n",
    "# sleep(10)\n",
    "\n",
    "for i in range(repetitions):\n",
    "    tracker._project_name = f'low_res{measurement_interval}s_{(i + 1)}'\n",
    "    os.system(f'ffmpeg -y -re -i {low_res_video} -c:v:0 libx264 -preset medium test.mp4')\n",
    "    flushed_measurements.append(tracker._prepare_emissions_data(delta=True))\n",
    "    sleep(0.5)\n",
    "    tracker._prepare_emissions_data(delta=True)\n",
    "\n",
    "tracker.stop()"
   ],
   "outputs": [
    {
     "name": "stderr",
     "output_type": "stream",
     "text": [
      "ffmpeg version 6.1.1 Copyright (c) 2000-2023 the FFmpeg developers\n",
      "  built with Apple clang version 15.0.0 (clang-1500.3.9.4)\n",
      "  configuration: --prefix=/opt/homebrew/Cellar/ffmpeg/6.1.1_5 --enable-shared --enable-pthreads --enable-version3 --cc=clang --host-cflags= --host-ldflags='-Wl,-ld_classic' --enable-ffplay --enable-gnutls --enable-gpl --enable-libaom --enable-libaribb24 --enable-libbluray --enable-libdav1d --enable-libharfbuzz --enable-libjxl --enable-libmp3lame --enable-libopus --enable-librav1e --enable-librist --enable-librubberband --enable-libsnappy --enable-libsrt --enable-libssh --enable-libsvtav1 --enable-libtesseract --enable-libtheora --enable-libvidstab --enable-libvmaf --enable-libvorbis --enable-libvpx --enable-libwebp --enable-libx264 --enable-libx265 --enable-libxml2 --enable-libxvid --enable-lzma --enable-libfontconfig --enable-libfreetype --enable-frei0r --enable-libass --enable-libopencore-amrnb --enable-libopencore-amrwb --enable-libopenjpeg --enable-libopenvino --enable-libspeex --enable-libsoxr --enable-libzmq --enable-libzimg --disable-libjack --disable-indev=jack --enable-videotoolbox --enable-audiotoolbox --enable-neon\n",
      "  libavutil      58. 29.100 / 58. 29.100\n",
      "  libavcodec     60. 31.102 / 60. 31.102\n",
      "  libavformat    60. 16.100 / 60. 16.100\n",
      "  libavdevice    60.  3.100 / 60.  3.100\n",
      "  libavfilter     9. 12.100 /  9. 12.100\n",
      "  libswscale      7.  5.100 /  7.  5.100\n",
      "  libswresample   4. 12.100 /  4. 12.100\n",
      "  libpostproc    57.  3.100 / 57.  3.100\n",
      "Input #0, mov,mp4,m4a,3gp,3g2,mj2, from 'beauty_high_res.mp4':\n",
      "  Metadata:\n",
      "    major_brand     : isom\n",
      "    minor_version   : 512\n",
      "    compatible_brands: isomiso2avc1mp41\n",
      "    encoder         : Lavf60.16.100\n",
      "  Duration: 00:00:05.00, start: 0.000000, bitrate: 449189 kb/s\n",
      "  Stream #0:0[0x1](und): Video: h264 (High) (avc1 / 0x31637661), yuv420p(progressive), 3840x2160, 449187 kb/s, 23.98 fps, 23.98 tbr, 19184 tbn (default)\n",
      "    Metadata:\n",
      "      handler_name    : VideoHandler\n",
      "      vendor_id       : [0][0][0][0]\n",
      "      encoder         : Lavc60.31.102 libx264\n",
      "Stream mapping:\n",
      "  Stream #0:0 -> #0:0 (h264 (native) -> h264 (libx264))\n",
      "Press [q] to stop, [?] for help\n",
      "[libx264 @ 0x133f056a0] using cpu capabilities: ARMv8 NEON\n",
      "[libx264 @ 0x133f056a0] profile High, level 5.1, 4:2:0, 8-bit\n",
      "[libx264 @ 0x133f056a0] 264 - core 164 r3108 31e19f9 - H.264/MPEG-4 AVC codec - Copyleft 2003-2023 - http://www.videolan.org/x264.html - options: cabac=1 ref=3 deblock=1:0:0 analyse=0x3:0x113 me=hex subme=7 psy=1 psy_rd=1.00:0.00 mixed_ref=1 me_range=16 chroma_me=1 trellis=1 8x8dct=1 cqm=0 deadzone=21,11 fast_pskip=1 chroma_qp_offset=-2 threads=15 lookahead_threads=2 sliced_threads=0 nr=0 decimate=1 interlaced=0 bluray_compat=0 constrained_intra=0 bframes=3 b_pyramid=2 b_adapt=1 b_bias=0 direct=1 weightb=1 open_gop=0 weightp=2 keyint=250 keyint_min=23 scenecut=40 intra_refresh=0 rc_lookahead=40 rc=crf mbtree=1 crf=23.0 qcomp=0.60 qpmin=0 qpmax=69 qpstep=4 ip_ratio=1.40 aq=1:1.00\n",
      "Output #0, mp4, to 'test.mp4':\n",
      "  Metadata:\n",
      "    major_brand     : isom\n",
      "    minor_version   : 512\n",
      "    compatible_brands: isomiso2avc1mp41\n",
      "    encoder         : Lavf60.16.100\n",
      "  Stream #0:0(und): Video: h264 (avc1 / 0x31637661), yuv420p(progressive), 3840x2160, q=2-31, 23.98 fps, 19184 tbn (default)\n",
      "    Metadata:\n",
      "      handler_name    : VideoHandler\n",
      "      vendor_id       : [0][0][0][0]\n",
      "      encoder         : Lavc60.31.102 libx264\n",
      "    Side data:\n",
      "      cpb: bitrate max/min/avg: 0/0/0 buffer size: 0 vbv_delay: N/A\n",
      "[out#0/mp4 @ 0x600000d340c0] video:57581kB audio:0kB subtitle:0kB other streams:0kB global headers:0kB muxing overhead: 0.002793%ize=   12544kB time=00:00:00.95 bitrate=107139.3kbits/s speed=0.131x    frame=   33 fps=3.9 q=28.0 size=   15872kB time=00:00:01.29 bitrate=100579.7kbits/s speed=0.152x    frame=   43 fps=4.4 q=28.0 size=   20736kB time=00:00:01.70 bitrate=99353.1kbits/s speed=0.177x    frame=   61 fps=5.2 q=28.0 size=   29184kB time=00:00:02.41 bitrate=98845.5kbits/s speed=0.207x    \n",
      "frame=  120 fps=7.2 q=-1.0 Lsize=   57583kB time=00:00:04.87 bitrate=96682.3kbits/s speed=0.293x    \n",
      "[libx264 @ 0x133f056a0] frame I:2     Avg QP:25.47  size:775292\n",
      "[libx264 @ 0x133f056a0] frame P:116   Avg QP:26.46  size:486806\n",
      "[libx264 @ 0x133f056a0] frame B:2     Avg QP:26.59  size:471271\n",
      "[libx264 @ 0x133f056a0] consecutive B-frames: 97.5%  0.0%  2.5%  0.0%\n",
      "[libx264 @ 0x133f056a0] mb I  I16..4:  5.2% 82.5% 12.3%\n",
      "[libx264 @ 0x133f056a0] mb P  I16..4:  3.0% 49.0%  2.3%  P16..4: 27.1% 11.2%  6.4%  0.0%  0.0%    skip: 1.0%\n",
      "[libx264 @ 0x133f056a0] mb B  I16..4:  2.8% 36.6%  1.2%  B16..8: 34.7%  6.4%  2.1%  direct: 9.4%  skip: 6.8%  L0:49.8% L1:47.2% BI: 3.0%\n",
      "[libx264 @ 0x133f056a0] 8x8 transform intra:90.0% inter:72.1%\n",
      "[libx264 @ 0x133f056a0] coded y,uvDC,uvAC intra: 90.4% 98.5% 89.2% inter: 56.6% 83.3% 21.0%\n",
      "[libx264 @ 0x133f056a0] i16 v,h,dc,p:  5%  4% 45% 47%\n",
      "[libx264 @ 0x133f056a0] i8 v,h,dc,ddl,ddr,vr,hd,vl,hu: 10%  6% 38%  8%  9%  9%  7%  8%  6%\n",
      "[libx264 @ 0x133f056a0] i4 v,h,dc,ddl,ddr,vr,hd,vl,hu: 12%  9% 25% 10% 13% 11%  8%  7%  4%\n",
      "[libx264 @ 0x133f056a0] i8c dc,h,v,p: 70% 13% 13%  5%\n",
      "[libx264 @ 0x133f056a0] Weighted P-Frames: Y:0.0% UV:0.0%\n",
      "[libx264 @ 0x133f056a0] ref P L0: 45.3% 13.9% 25.8% 15.0%\n",
      "[libx264 @ 0x133f056a0] ref B L0: 84.7% 15.3%\n",
      "[libx264 @ 0x133f056a0] kb/s:94261.49\n",
      "ffmpeg version 6.1.1 Copyright (c) 2000-2023 the FFmpeg developers\n",
      "  built with Apple clang version 15.0.0 (clang-1500.3.9.4)\n",
      "  configuration: --prefix=/opt/homebrew/Cellar/ffmpeg/6.1.1_5 --enable-shared --enable-pthreads --enable-version3 --cc=clang --host-cflags= --host-ldflags='-Wl,-ld_classic' --enable-ffplay --enable-gnutls --enable-gpl --enable-libaom --enable-libaribb24 --enable-libbluray --enable-libdav1d --enable-libharfbuzz --enable-libjxl --enable-libmp3lame --enable-libopus --enable-librav1e --enable-librist --enable-librubberband --enable-libsnappy --enable-libsrt --enable-libssh --enable-libsvtav1 --enable-libtesseract --enable-libtheora --enable-libvidstab --enable-libvmaf --enable-libvorbis --enable-libvpx --enable-libwebp --enable-libx264 --enable-libx265 --enable-libxml2 --enable-libxvid --enable-lzma --enable-libfontconfig --enable-libfreetype --enable-frei0r --enable-libass --enable-libopencore-amrnb --enable-libopencore-amrwb --enable-libopenjpeg --enable-libopenvino --enable-libspeex --enable-libsoxr --enable-libzmq --enable-libzimg --disable-libjack --disable-indev=jack --enable-videotoolbox --enable-audiotoolbox --enable-neon\n",
      "  libavutil      58. 29.100 / 58. 29.100\n",
      "  libavcodec     60. 31.102 / 60. 31.102\n",
      "  libavformat    60. 16.100 / 60. 16.100\n",
      "  libavdevice    60.  3.100 / 60.  3.100\n",
      "  libavfilter     9. 12.100 /  9. 12.100\n",
      "  libswscale      7.  5.100 /  7.  5.100\n",
      "  libswresample   4. 12.100 /  4. 12.100\n",
      "  libpostproc    57.  3.100 / 57.  3.100\n",
      "Input #0, mov,mp4,m4a,3gp,3g2,mj2, from 'beauty_high_res.mp4':\n",
      "  Metadata:\n",
      "    major_brand     : isom\n",
      "    minor_version   : 512\n",
      "    compatible_brands: isomiso2avc1mp41\n",
      "    encoder         : Lavf60.16.100\n",
      "  Duration: 00:00:05.00, start: 0.000000, bitrate: 449189 kb/s\n",
      "  Stream #0:0[0x1](und): Video: h264 (High) (avc1 / 0x31637661), yuv420p(progressive), 3840x2160, 449187 kb/s, 23.98 fps, 23.98 tbr, 19184 tbn (default)\n",
      "    Metadata:\n",
      "      handler_name    : VideoHandler\n",
      "      vendor_id       : [0][0][0][0]\n",
      "      encoder         : Lavc60.31.102 libx264\n",
      "Stream mapping:\n",
      "  Stream #0:0 -> #0:0 (h264 (native) -> h264 (libx264))\n",
      "Press [q] to stop, [?] for help\n",
      "[libx264 @ 0x129707610] using cpu capabilities: ARMv8 NEON\n",
      "[libx264 @ 0x129707610] profile High, level 5.1, 4:2:0, 8-bit\n",
      "[libx264 @ 0x129707610] 264 - core 164 r3108 31e19f9 - H.264/MPEG-4 AVC codec - Copyleft 2003-2023 - http://www.videolan.org/x264.html - options: cabac=1 ref=3 deblock=1:0:0 analyse=0x3:0x113 me=hex subme=7 psy=1 psy_rd=1.00:0.00 mixed_ref=1 me_range=16 chroma_me=1 trellis=1 8x8dct=1 cqm=0 deadzone=21,11 fast_pskip=1 chroma_qp_offset=-2 threads=15 lookahead_threads=2 sliced_threads=0 nr=0 decimate=1 interlaced=0 bluray_compat=0 constrained_intra=0 bframes=3 b_pyramid=2 b_adapt=1 b_bias=0 direct=1 weightb=1 open_gop=0 weightp=2 keyint=250 keyint_min=23 scenecut=40 intra_refresh=0 rc_lookahead=40 rc=crf mbtree=1 crf=23.0 qcomp=0.60 qpmin=0 qpmax=69 qpstep=4 ip_ratio=1.40 aq=1:1.00\n",
      "Output #0, mp4, to 'test.mp4':\n",
      "  Metadata:\n",
      "    major_brand     : isom\n",
      "    minor_version   : 512\n",
      "    compatible_brands: isomiso2avc1mp41\n",
      "    encoder         : Lavf60.16.100\n",
      "  Stream #0:0(und): Video: h264 (avc1 / 0x31637661), yuv420p(progressive), 3840x2160, q=2-31, 23.98 fps, 19184 tbn (default)\n",
      "    Metadata:\n",
      "      handler_name    : VideoHandler\n",
      "      vendor_id       : [0][0][0][0]\n",
      "      encoder         : Lavc60.31.102 libx264\n",
      "    Side data:\n",
      "      cpb: bitrate max/min/avg: 0/0/0 buffer size: 0 vbv_delay: N/A\n",
      "[out#0/mp4 @ 0x6000005d4480] video:57581kB audio:0kB subtitle:0kB other streams:0kB global headers:0kB muxing overhead: 0.002793%\n",
      "frame=  120 fps=7.3 q=-1.0 Lsize=   57583kB time=00:00:04.87 bitrate=96682.3kbits/s speed=0.296x    \n",
      "[libx264 @ 0x129707610] frame I:2     Avg QP:25.47  size:775292\n",
      "[libx264 @ 0x129707610] frame P:116   Avg QP:26.46  size:486806\n",
      "[libx264 @ 0x129707610] frame B:2     Avg QP:26.59  size:471271\n",
      "[libx264 @ 0x129707610] consecutive B-frames: 97.5%  0.0%  2.5%  0.0%\n",
      "[libx264 @ 0x129707610] mb I  I16..4:  5.2% 82.5% 12.3%\n",
      "[libx264 @ 0x129707610] mb P  I16..4:  3.0% 49.0%  2.3%  P16..4: 27.1% 11.2%  6.4%  0.0%  0.0%    skip: 1.0%\n",
      "[libx264 @ 0x129707610] mb B  I16..4:  2.8% 36.6%  1.2%  B16..8: 34.7%  6.4%  2.1%  direct: 9.4%  skip: 6.8%  L0:49.8% L1:47.2% BI: 3.0%\n",
      "[libx264 @ 0x129707610] 8x8 transform intra:90.0% inter:72.1%\n",
      "[libx264 @ 0x129707610] coded y,uvDC,uvAC intra: 90.4% 98.5% 89.2% inter: 56.6% 83.3% 21.0%\n",
      "[libx264 @ 0x129707610] i16 v,h,dc,p:  5%  4% 45% 47%\n",
      "[libx264 @ 0x129707610] i8 v,h,dc,ddl,ddr,vr,hd,vl,hu: 10%  6% 38%  8%  9%  9%  7%  8%  6%\n",
      "[libx264 @ 0x129707610] i4 v,h,dc,ddl,ddr,vr,hd,vl,hu: 12%  9% 25% 10% 13% 11%  8%  7%  4%\n",
      "[libx264 @ 0x129707610] i8c dc,h,v,p: 70% 13% 13%  5%\n",
      "[libx264 @ 0x129707610] Weighted P-Frames: Y:0.0% UV:0.0%\n",
      "[libx264 @ 0x129707610] ref P L0: 45.3% 13.9% 25.8% 15.0%\n",
      "[libx264 @ 0x129707610] ref B L0: 84.7% 15.3%\n",
      "[libx264 @ 0x129707610] kb/s:94261.49\n",
      "ffmpeg version 6.1.1 Copyright (c) 2000-2023 the FFmpeg developers\n",
      "  built with Apple clang version 15.0.0 (clang-1500.3.9.4)\n",
      "  configuration: --prefix=/opt/homebrew/Cellar/ffmpeg/6.1.1_5 --enable-shared --enable-pthreads --enable-version3 --cc=clang --host-cflags= --host-ldflags='-Wl,-ld_classic' --enable-ffplay --enable-gnutls --enable-gpl --enable-libaom --enable-libaribb24 --enable-libbluray --enable-libdav1d --enable-libharfbuzz --enable-libjxl --enable-libmp3lame --enable-libopus --enable-librav1e --enable-librist --enable-librubberband --enable-libsnappy --enable-libsrt --enable-libssh --enable-libsvtav1 --enable-libtesseract --enable-libtheora --enable-libvidstab --enable-libvmaf --enable-libvorbis --enable-libvpx --enable-libwebp --enable-libx264 --enable-libx265 --enable-libxml2 --enable-libxvid --enable-lzma --enable-libfontconfig --enable-libfreetype --enable-frei0r --enable-libass --enable-libopencore-amrnb --enable-libopencore-amrwb --enable-libopenjpeg --enable-libopenvino --enable-libspeex --enable-libsoxr --enable-libzmq --enable-libzimg --disable-libjack --disable-indev=jack --enable-videotoolbox --enable-audiotoolbox --enable-neon\n",
      "  libavutil      58. 29.100 / 58. 29.100\n",
      "  libavcodec     60. 31.102 / 60. 31.102\n",
      "  libavformat    60. 16.100 / 60. 16.100\n",
      "  libavdevice    60.  3.100 / 60.  3.100\n",
      "  libavfilter     9. 12.100 /  9. 12.100\n",
      "  libswscale      7.  5.100 /  7.  5.100\n",
      "  libswresample   4. 12.100 /  4. 12.100\n",
      "  libpostproc    57.  3.100 / 57.  3.100\n",
      "Input #0, mov,mp4,m4a,3gp,3g2,mj2, from 'beauty_high_res.mp4':\n",
      "  Metadata:\n",
      "    major_brand     : isom\n",
      "    minor_version   : 512\n",
      "    compatible_brands: isomiso2avc1mp41\n",
      "    encoder         : Lavf60.16.100\n",
      "  Duration: 00:00:05.00, start: 0.000000, bitrate: 449189 kb/s\n",
      "  Stream #0:0[0x1](und): Video: h264 (High) (avc1 / 0x31637661), yuv420p(progressive), 3840x2160, 449187 kb/s, 23.98 fps, 23.98 tbr, 19184 tbn (default)\n",
      "    Metadata:\n",
      "      handler_name    : VideoHandler\n",
      "      vendor_id       : [0][0][0][0]\n",
      "      encoder         : Lavc60.31.102 libx264\n",
      "Stream mapping:\n",
      "  Stream #0:0 -> #0:0 (h264 (native) -> h264 (libx264))\n",
      "Press [q] to stop, [?] for help\n",
      "[libx264 @ 0x137e052a0] using cpu capabilities: ARMv8 NEON\n",
      "[libx264 @ 0x137e052a0] profile High, level 5.1, 4:2:0, 8-bit\n",
      "[libx264 @ 0x137e052a0] 264 - core 164 r3108 31e19f9 - H.264/MPEG-4 AVC codec - Copyleft 2003-2023 - http://www.videolan.org/x264.html - options: cabac=1 ref=3 deblock=1:0:0 analyse=0x3:0x113 me=hex subme=7 psy=1 psy_rd=1.00:0.00 mixed_ref=1 me_range=16 chroma_me=1 trellis=1 8x8dct=1 cqm=0 deadzone=21,11 fast_pskip=1 chroma_qp_offset=-2 threads=15 lookahead_threads=2 sliced_threads=0 nr=0 decimate=1 interlaced=0 bluray_compat=0 constrained_intra=0 bframes=3 b_pyramid=2 b_adapt=1 b_bias=0 direct=1 weightb=1 open_gop=0 weightp=2 keyint=250 keyint_min=23 scenecut=40 intra_refresh=0 rc_lookahead=40 rc=crf mbtree=1 crf=23.0 qcomp=0.60 qpmin=0 qpmax=69 qpstep=4 ip_ratio=1.40 aq=1:1.00\n",
      "Output #0, mp4, to 'test.mp4':\n",
      "  Metadata:\n",
      "    major_brand     : isom\n",
      "    minor_version   : 512\n",
      "    compatible_brands: isomiso2avc1mp41\n",
      "    encoder         : Lavf60.16.100\n",
      "  Stream #0:0(und): Video: h264 (avc1 / 0x31637661), yuv420p(progressive), 3840x2160, q=2-31, 23.98 fps, 19184 tbn (default)\n",
      "    Metadata:\n",
      "      handler_name    : VideoHandler\n",
      "      vendor_id       : [0][0][0][0]\n",
      "      encoder         : Lavc60.31.102 libx264\n",
      "    Side data:\n",
      "      cpb: bitrate max/min/avg: 0/0/0 buffer size: 0 vbv_delay: N/A\n",
      "[out#0/mp4 @ 0x60000025c0c0] video:57581kB audio:0kB subtitle:0kB other streams:0kB global headers:0kB muxing overhead: 0.002793%\n",
      "frame=  120 fps=7.3 q=-1.0 Lsize=   57583kB time=00:00:04.87 bitrate=96682.3kbits/s speed=0.296x    \n",
      "[libx264 @ 0x137e052a0] frame I:2     Avg QP:25.47  size:775292\n",
      "[libx264 @ 0x137e052a0] frame P:116   Avg QP:26.46  size:486806\n",
      "[libx264 @ 0x137e052a0] frame B:2     Avg QP:26.59  size:471271\n",
      "[libx264 @ 0x137e052a0] consecutive B-frames: 97.5%  0.0%  2.5%  0.0%\n",
      "[libx264 @ 0x137e052a0] mb I  I16..4:  5.2% 82.5% 12.3%\n",
      "[libx264 @ 0x137e052a0] mb P  I16..4:  3.0% 49.0%  2.3%  P16..4: 27.1% 11.2%  6.4%  0.0%  0.0%    skip: 1.0%\n",
      "[libx264 @ 0x137e052a0] mb B  I16..4:  2.8% 36.6%  1.2%  B16..8: 34.7%  6.4%  2.1%  direct: 9.4%  skip: 6.8%  L0:49.8% L1:47.2% BI: 3.0%\n",
      "[libx264 @ 0x137e052a0] 8x8 transform intra:90.0% inter:72.1%\n",
      "[libx264 @ 0x137e052a0] coded y,uvDC,uvAC intra: 90.4% 98.5% 89.2% inter: 56.6% 83.3% 21.0%\n",
      "[libx264 @ 0x137e052a0] i16 v,h,dc,p:  5%  4% 45% 47%\n",
      "[libx264 @ 0x137e052a0] i8 v,h,dc,ddl,ddr,vr,hd,vl,hu: 10%  6% 38%  8%  9%  9%  7%  8%  6%\n",
      "[libx264 @ 0x137e052a0] i4 v,h,dc,ddl,ddr,vr,hd,vl,hu: 12%  9% 25% 10% 13% 11%  8%  7%  4%\n",
      "[libx264 @ 0x137e052a0] i8c dc,h,v,p: 70% 13% 13%  5%\n",
      "[libx264 @ 0x137e052a0] Weighted P-Frames: Y:0.0% UV:0.0%\n",
      "[libx264 @ 0x137e052a0] ref P L0: 45.3% 13.9% 25.8% 15.0%\n",
      "[libx264 @ 0x137e052a0] ref B L0: 84.7% 15.3%\n",
      "[libx264 @ 0x137e052a0] kb/s:94261.49\n",
      "ffmpeg version 6.1.1 Copyright (c) 2000-2023 the FFmpeg developers\n",
      "  built with Apple clang version 15.0.0 (clang-1500.3.9.4)\n",
      "  configuration: --prefix=/opt/homebrew/Cellar/ffmpeg/6.1.1_5 --enable-shared --enable-pthreads --enable-version3 --cc=clang --host-cflags= --host-ldflags='-Wl,-ld_classic' --enable-ffplay --enable-gnutls --enable-gpl --enable-libaom --enable-libaribb24 --enable-libbluray --enable-libdav1d --enable-libharfbuzz --enable-libjxl --enable-libmp3lame --enable-libopus --enable-librav1e --enable-librist --enable-librubberband --enable-libsnappy --enable-libsrt --enable-libssh --enable-libsvtav1 --enable-libtesseract --enable-libtheora --enable-libvidstab --enable-libvmaf --enable-libvorbis --enable-libvpx --enable-libwebp --enable-libx264 --enable-libx265 --enable-libxml2 --enable-libxvid --enable-lzma --enable-libfontconfig --enable-libfreetype --enable-frei0r --enable-libass --enable-libopencore-amrnb --enable-libopencore-amrwb --enable-libopenjpeg --enable-libopenvino --enable-libspeex --enable-libsoxr --enable-libzmq --enable-libzimg --disable-libjack --disable-indev=jack --enable-videotoolbox --enable-audiotoolbox --enable-neon\n",
      "  libavutil      58. 29.100 / 58. 29.100\n",
      "  libavcodec     60. 31.102 / 60. 31.102\n",
      "  libavformat    60. 16.100 / 60. 16.100\n",
      "  libavdevice    60.  3.100 / 60.  3.100\n",
      "  libavfilter     9. 12.100 /  9. 12.100\n",
      "  libswscale      7.  5.100 /  7.  5.100\n",
      "  libswresample   4. 12.100 /  4. 12.100\n",
      "  libpostproc    57.  3.100 / 57.  3.100\n",
      "Input #0, mov,mp4,m4a,3gp,3g2,mj2, from 'beauty_low_res.mp4':\n",
      "  Metadata:\n",
      "    major_brand     : isom\n",
      "    minor_version   : 512\n",
      "    compatible_brands: isomiso2avc1mp41\n",
      "    encoder         : Lavf60.16.100\n",
      "  Duration: 00:00:05.00, start: 0.000000, bitrate: 1079 kb/s\n",
      "  Stream #0:0[0x1](und): Video: h264 (High) (avc1 / 0x31637661), yuv420p(progressive), 640x360, 1075 kb/s, 23.98 fps, 23.98 tbr, 19184 tbn (default)\n",
      "    Metadata:\n",
      "      handler_name    : VideoHandler\n",
      "      vendor_id       : [0][0][0][0]\n",
      "      encoder         : Lavc60.31.102 libx264\n",
      "Stream mapping:\n",
      "  Stream #0:0 -> #0:0 (h264 (native) -> h264 (libx264))\n",
      "Press [q] to stop, [?] for help\n",
      "[libx264 @ 0x130e07710] using cpu capabilities: ARMv8 NEON\n",
      "[libx264 @ 0x130e07710] profile High, level 3.0, 4:2:0, 8-bit\n",
      "[libx264 @ 0x130e07710] 264 - core 164 r3108 31e19f9 - H.264/MPEG-4 AVC codec - Copyleft 2003-2023 - http://www.videolan.org/x264.html - options: cabac=1 ref=3 deblock=1:0:0 analyse=0x3:0x113 me=hex subme=7 psy=1 psy_rd=1.00:0.00 mixed_ref=1 me_range=16 chroma_me=1 trellis=1 8x8dct=1 cqm=0 deadzone=21,11 fast_pskip=1 chroma_qp_offset=-2 threads=11 lookahead_threads=1 sliced_threads=0 nr=0 decimate=1 interlaced=0 bluray_compat=0 constrained_intra=0 bframes=3 b_pyramid=2 b_adapt=1 b_bias=0 direct=1 weightb=1 open_gop=0 weightp=2 keyint=250 keyint_min=23 scenecut=40 intra_refresh=0 rc_lookahead=40 rc=crf mbtree=1 crf=23.0 qcomp=0.60 qpmin=0 qpmax=69 qpstep=4 ip_ratio=1.40 aq=1:1.00\n",
      "Output #0, mp4, to 'test.mp4':\n",
      "  Metadata:\n",
      "    major_brand     : isom\n",
      "    minor_version   : 512\n",
      "    compatible_brands: isomiso2avc1mp41\n",
      "    encoder         : Lavf60.16.100\n",
      "  Stream #0:0(und): Video: h264 (avc1 / 0x31637661), yuv420p(progressive), 640x360, q=2-31, 23.98 fps, 19184 tbn (default)\n",
      "    Metadata:\n",
      "      handler_name    : VideoHandler\n",
      "      vendor_id       : [0][0][0][0]\n",
      "      encoder         : Lavc60.31.102 libx264\n",
      "    Side data:\n",
      "      cpb: bitrate max/min/avg: 0/0/0 buffer size: 0 vbv_delay: N/A\n",
      "[out#0/mp4 @ 0x6000018a8600] video:463kB audio:0kB subtitle:0kB other streams:0kB global headers:0kB muxing overhead: 0.485339%\n",
      "frame=  120 fps= 27 q=-1.0 Lsize=     465kB time=00:00:04.87 bitrate= 780.5kbits/s speed=1.09x    \n",
      "[libx264 @ 0x130e07710] frame I:1     Avg QP:20.61  size: 10746\n",
      "[libx264 @ 0x130e07710] frame P:31    Avg QP:22.94  size:  6079\n",
      "[libx264 @ 0x130e07710] frame B:88    Avg QP:26.57  size:  3112\n",
      "[libx264 @ 0x130e07710] consecutive B-frames:  1.7%  1.7%  0.0% 96.7%\n",
      "[libx264 @ 0x130e07710] mb I  I16..4: 27.1% 58.6% 14.3%\n",
      "[libx264 @ 0x130e07710] mb P  I16..4:  4.8% 23.4%  3.8%  P16..4: 33.3% 12.9%  5.1%  0.0%  0.0%    skip:16.6%\n",
      "[libx264 @ 0x130e07710] mb B  I16..4:  0.2%  6.9%  1.7%  B16..8: 30.7%  9.1%  1.8%  direct: 3.4%  skip:46.2%  L0:47.0% L1:46.1% BI: 6.9%\n",
      "[libx264 @ 0x130e07710] 8x8 transform intra:74.4% inter:81.9%\n",
      "[libx264 @ 0x130e07710] coded y,uvDC,uvAC intra: 69.4% 72.5% 20.3% inter: 17.3% 16.9% 0.1%\n",
      "[libx264 @ 0x130e07710] i16 v,h,dc,p: 58% 15% 15% 12%\n",
      "[libx264 @ 0x130e07710] i8 v,h,dc,ddl,ddr,vr,hd,vl,hu: 12% 12% 16%  4% 16% 11% 15%  7%  6%\n",
      "[libx264 @ 0x130e07710] i4 v,h,dc,ddl,ddr,vr,hd,vl,hu:  8% 13% 12%  4% 26% 11% 18%  3%  5%\n",
      "[libx264 @ 0x130e07710] i8c dc,h,v,p: 52% 19% 22%  8%\n",
      "[libx264 @ 0x130e07710] Weighted P-Frames: Y:0.0% UV:0.0%\n",
      "[libx264 @ 0x130e07710] ref P L0: 56.4% 14.6% 19.5%  9.5%\n",
      "[libx264 @ 0x130e07710] ref B L0: 86.0% 10.6%  3.5%\n",
      "[libx264 @ 0x130e07710] ref B L1: 95.6%  4.4%\n",
      "[libx264 @ 0x130e07710] kb/s:756.17\n",
      "ffmpeg version 6.1.1 Copyright (c) 2000-2023 the FFmpeg developers\n",
      "  built with Apple clang version 15.0.0 (clang-1500.3.9.4)\n",
      "  configuration: --prefix=/opt/homebrew/Cellar/ffmpeg/6.1.1_5 --enable-shared --enable-pthreads --enable-version3 --cc=clang --host-cflags= --host-ldflags='-Wl,-ld_classic' --enable-ffplay --enable-gnutls --enable-gpl --enable-libaom --enable-libaribb24 --enable-libbluray --enable-libdav1d --enable-libharfbuzz --enable-libjxl --enable-libmp3lame --enable-libopus --enable-librav1e --enable-librist --enable-librubberband --enable-libsnappy --enable-libsrt --enable-libssh --enable-libsvtav1 --enable-libtesseract --enable-libtheora --enable-libvidstab --enable-libvmaf --enable-libvorbis --enable-libvpx --enable-libwebp --enable-libx264 --enable-libx265 --enable-libxml2 --enable-libxvid --enable-lzma --enable-libfontconfig --enable-libfreetype --enable-frei0r --enable-libass --enable-libopencore-amrnb --enable-libopencore-amrwb --enable-libopenjpeg --enable-libopenvino --enable-libspeex --enable-libsoxr --enable-libzmq --enable-libzimg --disable-libjack --disable-indev=jack --enable-videotoolbox --enable-audiotoolbox --enable-neon\n",
      "  libavutil      58. 29.100 / 58. 29.100\n",
      "  libavcodec     60. 31.102 / 60. 31.102\n",
      "  libavformat    60. 16.100 / 60. 16.100\n",
      "  libavdevice    60.  3.100 / 60.  3.100\n",
      "  libavfilter     9. 12.100 /  9. 12.100\n",
      "  libswscale      7.  5.100 /  7.  5.100\n",
      "  libswresample   4. 12.100 /  4. 12.100\n",
      "  libpostproc    57.  3.100 / 57.  3.100\n",
      "Input #0, mov,mp4,m4a,3gp,3g2,mj2, from 'beauty_low_res.mp4':\n",
      "  Metadata:\n",
      "    major_brand     : isom\n",
      "    minor_version   : 512\n",
      "    compatible_brands: isomiso2avc1mp41\n",
      "    encoder         : Lavf60.16.100\n",
      "  Duration: 00:00:05.00, start: 0.000000, bitrate: 1079 kb/s\n",
      "  Stream #0:0[0x1](und): Video: h264 (High) (avc1 / 0x31637661), yuv420p(progressive), 640x360, 1075 kb/s, 23.98 fps, 23.98 tbr, 19184 tbn (default)\n",
      "    Metadata:\n",
      "      handler_name    : VideoHandler\n",
      "      vendor_id       : [0][0][0][0]\n",
      "      encoder         : Lavc60.31.102 libx264\n",
      "Stream mapping:\n",
      "  Stream #0:0 -> #0:0 (h264 (native) -> h264 (libx264))\n",
      "Press [q] to stop, [?] for help\n",
      "[libx264 @ 0x143f06800] using cpu capabilities: ARMv8 NEON\n",
      "[libx264 @ 0x143f06800] profile High, level 3.0, 4:2:0, 8-bit\n",
      "[libx264 @ 0x143f06800] 264 - core 164 r3108 31e19f9 - H.264/MPEG-4 AVC codec - Copyleft 2003-2023 - http://www.videolan.org/x264.html - options: cabac=1 ref=3 deblock=1:0:0 analyse=0x3:0x113 me=hex subme=7 psy=1 psy_rd=1.00:0.00 mixed_ref=1 me_range=16 chroma_me=1 trellis=1 8x8dct=1 cqm=0 deadzone=21,11 fast_pskip=1 chroma_qp_offset=-2 threads=11 lookahead_threads=1 sliced_threads=0 nr=0 decimate=1 interlaced=0 bluray_compat=0 constrained_intra=0 bframes=3 b_pyramid=2 b_adapt=1 b_bias=0 direct=1 weightb=1 open_gop=0 weightp=2 keyint=250 keyint_min=23 scenecut=40 intra_refresh=0 rc_lookahead=40 rc=crf mbtree=1 crf=23.0 qcomp=0.60 qpmin=0 qpmax=69 qpstep=4 ip_ratio=1.40 aq=1:1.00\n",
      "Output #0, mp4, to 'test.mp4':\n",
      "  Metadata:\n",
      "    major_brand     : isom\n",
      "    minor_version   : 512\n",
      "    compatible_brands: isomiso2avc1mp41\n",
      "    encoder         : Lavf60.16.100\n",
      "  Stream #0:0(und): Video: h264 (avc1 / 0x31637661), yuv420p(progressive), 640x360, q=2-31, 23.98 fps, 19184 tbn (default)\n",
      "    Metadata:\n",
      "      handler_name    : VideoHandler\n",
      "      vendor_id       : [0][0][0][0]\n",
      "      encoder         : Lavc60.31.102 libx264\n",
      "    Side data:\n",
      "      cpb: bitrate max/min/avg: 0/0/0 buffer size: 0 vbv_delay: N/A\n",
      "[out#0/mp4 @ 0x600001748480] video:463kB audio:0kB subtitle:0kB other streams:0kB global headers:0kB muxing overhead: 0.485339%\n",
      "frame=  120 fps= 27 q=-1.0 Lsize=     465kB time=00:00:04.87 bitrate= 780.5kbits/s speed=1.09x    \n",
      "[libx264 @ 0x143f06800] frame I:1     Avg QP:20.61  size: 10746\n",
      "[libx264 @ 0x143f06800] frame P:31    Avg QP:22.94  size:  6079\n",
      "[libx264 @ 0x143f06800] frame B:88    Avg QP:26.57  size:  3112\n",
      "[libx264 @ 0x143f06800] consecutive B-frames:  1.7%  1.7%  0.0% 96.7%\n",
      "[libx264 @ 0x143f06800] mb I  I16..4: 27.1% 58.6% 14.3%\n",
      "[libx264 @ 0x143f06800] mb P  I16..4:  4.8% 23.4%  3.8%  P16..4: 33.3% 12.9%  5.1%  0.0%  0.0%    skip:16.6%\n",
      "[libx264 @ 0x143f06800] mb B  I16..4:  0.2%  6.9%  1.7%  B16..8: 30.7%  9.1%  1.8%  direct: 3.4%  skip:46.2%  L0:47.0% L1:46.1% BI: 6.9%\n",
      "[libx264 @ 0x143f06800] 8x8 transform intra:74.4% inter:81.9%\n",
      "[libx264 @ 0x143f06800] coded y,uvDC,uvAC intra: 69.4% 72.5% 20.3% inter: 17.3% 16.9% 0.1%\n",
      "[libx264 @ 0x143f06800] i16 v,h,dc,p: 58% 15% 15% 12%\n",
      "[libx264 @ 0x143f06800] i8 v,h,dc,ddl,ddr,vr,hd,vl,hu: 12% 12% 16%  4% 16% 11% 15%  7%  6%\n",
      "[libx264 @ 0x143f06800] i4 v,h,dc,ddl,ddr,vr,hd,vl,hu:  8% 13% 12%  4% 26% 11% 18%  3%  5%\n",
      "[libx264 @ 0x143f06800] i8c dc,h,v,p: 52% 19% 22%  8%\n",
      "[libx264 @ 0x143f06800] Weighted P-Frames: Y:0.0% UV:0.0%\n",
      "[libx264 @ 0x143f06800] ref P L0: 56.4% 14.6% 19.5%  9.5%\n",
      "[libx264 @ 0x143f06800] ref B L0: 86.0% 10.6%  3.5%\n",
      "[libx264 @ 0x143f06800] ref B L1: 95.6%  4.4%\n",
      "[libx264 @ 0x143f06800] kb/s:756.17\n",
      "ffmpeg version 6.1.1 Copyright (c) 2000-2023 the FFmpeg developers\n",
      "  built with Apple clang version 15.0.0 (clang-1500.3.9.4)\n",
      "  configuration: --prefix=/opt/homebrew/Cellar/ffmpeg/6.1.1_5 --enable-shared --enable-pthreads --enable-version3 --cc=clang --host-cflags= --host-ldflags='-Wl,-ld_classic' --enable-ffplay --enable-gnutls --enable-gpl --enable-libaom --enable-libaribb24 --enable-libbluray --enable-libdav1d --enable-libharfbuzz --enable-libjxl --enable-libmp3lame --enable-libopus --enable-librav1e --enable-librist --enable-librubberband --enable-libsnappy --enable-libsrt --enable-libssh --enable-libsvtav1 --enable-libtesseract --enable-libtheora --enable-libvidstab --enable-libvmaf --enable-libvorbis --enable-libvpx --enable-libwebp --enable-libx264 --enable-libx265 --enable-libxml2 --enable-libxvid --enable-lzma --enable-libfontconfig --enable-libfreetype --enable-frei0r --enable-libass --enable-libopencore-amrnb --enable-libopencore-amrwb --enable-libopenjpeg --enable-libopenvino --enable-libspeex --enable-libsoxr --enable-libzmq --enable-libzimg --disable-libjack --disable-indev=jack --enable-videotoolbox --enable-audiotoolbox --enable-neon\n",
      "  libavutil      58. 29.100 / 58. 29.100\n",
      "  libavcodec     60. 31.102 / 60. 31.102\n",
      "  libavformat    60. 16.100 / 60. 16.100\n",
      "  libavdevice    60.  3.100 / 60.  3.100\n",
      "  libavfilter     9. 12.100 /  9. 12.100\n",
      "  libswscale      7.  5.100 /  7.  5.100\n",
      "  libswresample   4. 12.100 /  4. 12.100\n",
      "  libpostproc    57.  3.100 / 57.  3.100\n",
      "Input #0, mov,mp4,m4a,3gp,3g2,mj2, from 'beauty_low_res.mp4':\n",
      "  Metadata:\n",
      "    major_brand     : isom\n",
      "    minor_version   : 512\n",
      "    compatible_brands: isomiso2avc1mp41\n",
      "    encoder         : Lavf60.16.100\n",
      "  Duration: 00:00:05.00, start: 0.000000, bitrate: 1079 kb/s\n",
      "  Stream #0:0[0x1](und): Video: h264 (High) (avc1 / 0x31637661), yuv420p(progressive), 640x360, 1075 kb/s, 23.98 fps, 23.98 tbr, 19184 tbn (default)\n",
      "    Metadata:\n",
      "      handler_name    : VideoHandler\n",
      "      vendor_id       : [0][0][0][0]\n",
      "      encoder         : Lavc60.31.102 libx264\n",
      "Stream mapping:\n",
      "  Stream #0:0 -> #0:0 (h264 (native) -> h264 (libx264))\n",
      "Press [q] to stop, [?] for help\n",
      "[libx264 @ 0x144706800] using cpu capabilities: ARMv8 NEON\n",
      "[libx264 @ 0x144706800] profile High, level 3.0, 4:2:0, 8-bit\n",
      "[libx264 @ 0x144706800] 264 - core 164 r3108 31e19f9 - H.264/MPEG-4 AVC codec - Copyleft 2003-2023 - http://www.videolan.org/x264.html - options: cabac=1 ref=3 deblock=1:0:0 analyse=0x3:0x113 me=hex subme=7 psy=1 psy_rd=1.00:0.00 mixed_ref=1 me_range=16 chroma_me=1 trellis=1 8x8dct=1 cqm=0 deadzone=21,11 fast_pskip=1 chroma_qp_offset=-2 threads=11 lookahead_threads=1 sliced_threads=0 nr=0 decimate=1 interlaced=0 bluray_compat=0 constrained_intra=0 bframes=3 b_pyramid=2 b_adapt=1 b_bias=0 direct=1 weightb=1 open_gop=0 weightp=2 keyint=250 keyint_min=23 scenecut=40 intra_refresh=0 rc_lookahead=40 rc=crf mbtree=1 crf=23.0 qcomp=0.60 qpmin=0 qpmax=69 qpstep=4 ip_ratio=1.40 aq=1:1.00\n",
      "Output #0, mp4, to 'test.mp4':\n",
      "  Metadata:\n",
      "    major_brand     : isom\n",
      "    minor_version   : 512\n",
      "    compatible_brands: isomiso2avc1mp41\n",
      "    encoder         : Lavf60.16.100\n",
      "  Stream #0:0(und): Video: h264 (avc1 / 0x31637661), yuv420p(progressive), 640x360, q=2-31, 23.98 fps, 19184 tbn (default)\n",
      "    Metadata:\n",
      "      handler_name    : VideoHandler\n",
      "      vendor_id       : [0][0][0][0]\n",
      "      encoder         : Lavc60.31.102 libx264\n",
      "    Side data:\n",
      "      cpb: bitrate max/min/avg: 0/0/0 buffer size: 0 vbv_delay: N/A\n",
      "[out#0/mp4 @ 0x6000001dc480] video:463kB audio:0kB subtitle:0kB other streams:0kB global headers:0kB muxing overhead: 0.485339%\n",
      "frame=  120 fps= 27 q=-1.0 Lsize=     465kB time=00:00:04.87 bitrate= 780.5kbits/s speed=1.09x    \n",
      "[libx264 @ 0x144706800] frame I:1     Avg QP:20.61  size: 10746\n",
      "[libx264 @ 0x144706800] frame P:31    Avg QP:22.94  size:  6079\n",
      "[libx264 @ 0x144706800] frame B:88    Avg QP:26.57  size:  3112\n",
      "[libx264 @ 0x144706800] consecutive B-frames:  1.7%  1.7%  0.0% 96.7%\n",
      "[libx264 @ 0x144706800] mb I  I16..4: 27.1% 58.6% 14.3%\n",
      "[libx264 @ 0x144706800] mb P  I16..4:  4.8% 23.4%  3.8%  P16..4: 33.3% 12.9%  5.1%  0.0%  0.0%    skip:16.6%\n",
      "[libx264 @ 0x144706800] mb B  I16..4:  0.2%  6.9%  1.7%  B16..8: 30.7%  9.1%  1.8%  direct: 3.4%  skip:46.2%  L0:47.0% L1:46.1% BI: 6.9%\n",
      "[libx264 @ 0x144706800] 8x8 transform intra:74.4% inter:81.9%\n",
      "[libx264 @ 0x144706800] coded y,uvDC,uvAC intra: 69.4% 72.5% 20.3% inter: 17.3% 16.9% 0.1%\n",
      "[libx264 @ 0x144706800] i16 v,h,dc,p: 58% 15% 15% 12%\n",
      "[libx264 @ 0x144706800] i8 v,h,dc,ddl,ddr,vr,hd,vl,hu: 12% 12% 16%  4% 16% 11% 15%  7%  6%\n",
      "[libx264 @ 0x144706800] i4 v,h,dc,ddl,ddr,vr,hd,vl,hu:  8% 13% 12%  4% 26% 11% 18%  3%  5%\n",
      "[libx264 @ 0x144706800] i8c dc,h,v,p: 52% 19% 22%  8%\n",
      "[libx264 @ 0x144706800] Weighted P-Frames: Y:0.0% UV:0.0%\n",
      "[libx264 @ 0x144706800] ref P L0: 56.4% 14.6% 19.5%  9.5%\n",
      "[libx264 @ 0x144706800] ref B L0: 86.0% 10.6%  3.5%\n",
      "[libx264 @ 0x144706800] ref B L1: 95.6%  4.4%\n",
      "[libx264 @ 0x144706800] kb/s:756.17\n"
     ]
    },
    {
     "data": {
      "text/plain": [
       "2.893631900578419e-05"
      ]
     },
     "execution_count": 46,
     "metadata": {},
     "output_type": "execute_result"
    }
   ],
   "execution_count": 46
  },
  {
   "metadata": {
    "ExecuteTime": {
     "end_time": "2024-04-04T14:19:13.830519Z",
     "start_time": "2024-04-04T14:19:13.819384Z"
    }
   },
   "cell_type": "code",
   "source": [
    "df = pd.DataFrame(flushed_measurements)\n",
    "df.to_csv(f'video_scaling_emissions_{host_name}.csv')"
   ],
   "outputs": [],
   "execution_count": 52
  }
 ],
 "metadata": {
  "kernelspec": {
   "display_name": "gaia-tools",
   "language": "python",
   "name": "python3"
  },
  "language_info": {
   "codemirror_mode": {
    "name": "ipython",
    "version": 3
   },
   "file_extension": ".py",
   "mimetype": "text/x-python",
   "name": "python",
   "nbconvert_exporter": "python",
   "pygments_lexer": "ipython3",
   "version": "3.10.13"
  }
 },
 "nbformat": 4,
 "nbformat_minor": 2
}
